<?xml version="1.0" standalone="no"?>
<!DOCTYPE svg PUBLIC "-//W3C//DTD SVG 20010904//EN"
 "http://www.w3.org/TR/2001/REC-SVG-20010904/DTD/svg10.dtd">
<svg version="1.0" xmlns="http://www.w3.org/2000/svg"
 width="260.000000pt" height="260.000000pt" viewBox="0 0 260.000000 260.000000"
 preserveAspectRatio="xMidYMid meet">
<metadata>
Created by potrace 1.14, written by Peter Selinger 2001-2017
</metadata>
<g transform="translate(0.000000,260.000000) scale(0.100000,-0.100000)"
fill="#000000" stroke="none">
<path d="M700 2109 c-92 -10 -156 -56 -193 -138 -18 -42 -19 -69 -19 -671 0
-600 1 -630 20 -671 24 -56 65 -97 121 -122 43 -19 68 -19 673 -19 l628 0 54
26 c54 26 93 71 116 131 16 41 17 573 1 602 -21 41 -81 41 -102 1 -7 -13 -11
-108 -10 -272 0 -140 -4 -268 -10 -289 -7 -25 -20 -44 -41 -56 -28 -18 -64
-19 -636 -19 -660 -1 -646 -2 -676 56 -20 39 -21 1211 0 1260 22 55 45 59 339
60 166 0 271 5 284 11 43 23 33 95 -15 107 -33 8 -461 11 -534 3z"/>
<path d="M1521 2108 c-20 -7 -37 -43 -32 -68 2 -8 10 -23 18 -32 14 -16 38
-18 202 -18 l186 0 -326 -327 c-180 -181 -329 -338 -332 -350 -3 -14 3 -33 15
-49 41 -51 55 -40 405 309 178 177 324 323 326 324 1 1 2 -82 2 -184 0 -182 1
-185 24 -204 30 -24 52 -24 79 1 22 20 22 26 22 295 0 235 -2 276 -16 289 -8
9 -21 17 -27 17 -46 6 -531 3 -546 -3z"/>
<path d="M794 861 c-51 -9 -72 -72 -36 -104 13 -12 37 -17 85 -17 72 0 99 16
102 59 2 25 -29 61 -53 62 -9 0 -31 1 -48 2 -17 1 -39 0 -50 -2z"/>
<path d="M1135 859 c-62 -10 -84 -60 -45 -99 15 -15 34 -20 73 -20 28 -1 188
-1 355 -1 275 -1 305 1 323 17 25 22 24 66 -1 89 -18 16 -47 18 -343 19 -178
1 -341 -2 -362 -5z"/>
</g>
</svg>
